{
  "source": "C:\\Users\\Peter\\Desktop\\stuff\\MIUN\\quantitative_research\\video_compression\\videos\\BVI-HD\\BVI-HD_CDVL_videos\\ORIG\\CloudsZoom_1920x1080_60fps.mp4",
  "output": "C:\\Users\\Peter\\Desktop\\stuff\\MIUN\\quantitative_research\\video_compression\\compressed_videos\\BVI-HD\\vp9\\1\\CloudsZoom_1920x1080_60fps_vp9.webm",
  "codec": "vp9",
  "ok": "Input #0, mov,mp4,m4a,3gp,3g2,mj2, from 'C:\\Users\\Peter\\Desktop\\stuff\\MIUN\\quantitative_research\\video_compression\\videos\\BVI-HD\\BVI-HD_CDVL_videos\\ORIG\\CloudsZoom_1920x1080_60fps.mp4':\n  Metadata:\n    major_brand     : isom\n    minor_version   : 512\n    compatible_brands: isomiso2avc1mp41\n    encoder         : Lavf54.28.101\n  Duration: 00:00:05.00, start: 0.000000, bitrate: 32589 kb/s\n  Stream #0:0[0x1](und): Video: h264 (High 4:4:4 Predictive) (avc1 / 0x31637661), yuv420p(progressive), 1920x1080, 32586 kb/s, 60 fps, 60 tbr, 60 tbn (default)\n    Metadata:\n      handler_name    : VideoHandler\n      vendor_id       : [0][0][0][0]\n[out#0/webm @ 0000020cb50b9780] Codec AVOption b:a (set bitrate (in bits/s)) has not been used for any stream. The most likely reason is either wrong type (e.g. a video option with no video streams) or that it is a private option of some decoder which was not actually used for any stream.\nStream mapping:\n  Stream #0:0 -> #0:0 (h264 (native) -> vp9 (libvpx-vp9))\nPress [q] to stop, [?] for help\n[libvpx-vp9 @ 0000020cb5574b40] v1.15.2-100-g40561f514\nOutput #0, webm, to 'C:\\Users\\Peter\\Desktop\\stuff\\MIUN\\quantitative_research\\video_compression\\compressed_videos\\BVI-HD\\vp9\\1\\CloudsZoom_1920x1080_60fps_vp9.webm':\n  Metadata:\n    major_brand     : isom\n    minor_version   : 512\n    compatible_brands: isomiso2avc1mp41\n    encoder         : Lavf62.3.100\n  Stream #0:0(und): Video: vp9, yuv420p(tv, progressive), 1920x1080, q=2-31, 1000 kb/s, 60 fps, 1k tbn (default)\n    Metadata:\n      encoder         : Lavc62.11.100 libvpx-vp9\n      handler_name    : VideoHandler\n      vendor_id       : [0][0][0][0]\n    Side data:\n      cpb: bitrate max/min/avg: 0/0/0 buffer size: 1000000 vbv_delay: N/A\nframe=    8 fps=0.0 q=35.0 size=       1KiB time=00:00:00.13 bitrate=  38.0kbits/s speed=0.259x elapsed=0:00:00.51    \nframe=   19 fps= 18 q=19.0 size=       1KiB time=00:00:00.31 bitrate=  16.0kbits/s speed=0.308x elapsed=0:00:01.02    \nframe=   28 fps= 18 q=15.0 size=       1KiB time=00:00:00.46 bitrate=  10.9kbits/s speed=0.303x elapsed=0:00:01.53    \nframe=   38 fps= 18 q=24.0 size=       1KiB time=00:00:00.63 bitrate=   8.0kbits/s speed=0.307x elapsed=0:00:02.06    \nframe=   50 fps= 19 q=19.0 size=       1KiB time=00:00:00.83 bitrate=   6.1kbits/s speed=0.323x elapsed=0:00:02.58    \nframe=   60 fps= 19 q=15.0 size=       1KiB time=00:00:01.00 bitrate=   5.1kbits/s speed=0.324x elapsed=0:00:03.08    \nframe=   72 fps= 20 q=14.0 size=       1KiB time=00:00:01.20 bitrate=   4.2kbits/s speed=0.333x elapsed=0:00:03.60    \nframe=   84 fps= 20 q=14.0 size=       1KiB time=00:00:01.40 bitrate=   3.6kbits/s speed=0.338x elapsed=0:00:04.14    \nframe=   95 fps= 20 q=21.0 size=       1KiB time=00:00:01.58 bitrate=   3.2kbits/s speed=0.34x elapsed=0:00:04.65    \nframe=  106 fps= 21 q=14.0 size=       1KiB time=00:00:01.76 bitrate=   2.9kbits/s speed=0.342x elapsed=0:00:05.16    \nframe=  118 fps= 21 q=16.0 size=       1KiB time=00:00:01.96 bitrate=   2.6kbits/s speed=0.346x elapsed=0:00:05.68    \nframe=  129 fps= 21 q=8.0 size=       1KiB time=00:00:02.15 bitrate=   2.4kbits/s speed=0.344x elapsed=0:00:06.24    \nframe=  141 fps= 21 q=18.0 size=     256KiB time=00:00:02.35 bitrate= 892.4kbits/s speed=0.347x elapsed=0:00:06.76    \nframe=  151 fps= 21 q=23.0 size=     256KiB time=00:00:02.51 bitrate= 833.3kbits/s speed=0.345x elapsed=0:00:07.29    \nframe=  163 fps= 21 q=16.0 size=     256KiB time=00:00:02.71 bitrate= 772.0kbits/s speed=0.348x elapsed=0:00:07.80    \nframe=  174 fps= 21 q=17.0 size=     256KiB time=00:00:02.90 bitrate= 723.2kbits/s speed=0.348x elapsed=0:00:08.33    \nframe=  185 fps= 21 q=22.0 size=     256KiB time=00:00:03.08 bitrate= 680.2kbits/s speed=0.348x elapsed=0:00:08.86    \nframe=  196 fps= 21 q=16.0 size=     256KiB time=00:00:03.26 bitrate= 642.0kbits/s speed=0.348x elapsed=0:00:09.38    \nframe=  207 fps= 21 q=14.0 size=     256KiB time=00:00:03.45 bitrate= 607.9kbits/s speed=0.348x elapsed=0:00:09.90    \nframe=  218 fps= 21 q=20.0 size=     256KiB time=00:00:03.63 bitrate= 577.2kbits/s speed=0.349x elapsed=0:00:10.41    \nframe=  228 fps= 21 q=18.0 size=     256KiB time=00:00:03.80 bitrate= 551.9kbits/s speed=0.348x elapsed=0:00:10.93    \nframe=  240 fps= 21 q=16.0 size=     256KiB time=00:00:04.00 bitrate= 524.3kbits/s speed=0.35x elapsed=0:00:11.44    \nframe=  252 fps= 21 q=18.0 size=     256KiB time=00:00:04.20 bitrate= 499.3kbits/s speed=0.351x elapsed=0:00:11.97    \nframe=  263 fps= 21 q=17.0 size=     512KiB time=00:00:04.38 bitrate= 956.9kbits/s speed=0.351x elapsed=0:00:12.47    \nframe=  275 fps= 21 q=18.0 size=     512KiB time=00:00:04.58 bitrate= 915.1kbits/s speed=0.353x elapsed=0:00:12.99    \nframe=  276 fps= 20 q=14.0 size=     512KiB time=00:00:04.60 bitrate= 911.8kbits/s speed=0.34x elapsed=0:00:13.53    \nframe=  276 fps= 20 q=14.0 size=     512KiB time=00:00:04.60 bitrate= 911.8kbits/s speed=0.327x elapsed=0:00:14.05    \n[out#0/webm @ 0000020cb50b9780] video:687KiB audio:0KiB subtitle:0KiB other streams:0KiB global headers:0KiB muxing overhead: 0.401795%\nframe=  300 fps= 21 q=21.0 Lsize=     690KiB time=00:00:05.00 bitrate=1130.7kbits/s speed=0.352x elapsed=0:00:14.22    \n",
  "seconds": 14.40860915184021,
  "probe_out": {}
}